PSF_ID_stride3.mot
nRows=11
nColumns=38

name PSF_ID_stride3.mot
datacolumns 38
datarows 11
range 1.4350000000 1.4850000000
endheader
time	pelvis_tilt_moment	pelvis_list_moment	pelvis_rotation_moment	pelvis_tx_force	pelvis_ty_force	pelvis_tz_force	hip_flexion_r_moment	hip_adduction_r_moment	hip_rotation_r_moment	knee_angle_r_moment	ankle_angle_r_moment	subtalar_angle_r_moment	mtp_angle_r_moment	hip_flexion_l_moment	hip_adduction_l_moment	hip_rotation_l_moment	knee_angle_l_moment	ankle_angle_l_moment	subtalar_angle_l_moment	mtp_angle_l_moment	lumbar_extension_moment	lumbar_bending_moment	lumbar_rotation_moment	arm_flex_r_moment	arm_add_r_moment	arm_rot_r_moment	elbow_flex_r_moment	pro_sup_r_moment	wrist_flex_r_moment	wrist_dev_r_moment	arm_flex_l_moment	arm_add_l_moment	arm_rot_l_moment	elbow_flex_l_moment	pro_sup_l_moment	wrist_flex_l_moment	wrist_dev_l_moment
        1.4350000000	       -9.8840543654	      -54.3133953882	      -31.0714246903	       41.0342816971	     -210.6910256457	       72.3426457438	     -145.0672972458	      -19.1799459548	       -2.7159780122	      -75.8422532783	       -3.4068176415	       -0.1031805012	       -0.1334039571	       87.3499343566	      -34.2855092787	        8.8058202840	       26.2945053509	        4.0566552048	       -1.0473432977	        0.1620569724	      -12.0628516932	       -7.9418269082	        0.2598626791	       -0.8116110735	       -0.2801365636	       -0.0457999696	       -1.0107105825	        0.0265358303	       -0.0188397431	        0.0948248316	       -1.2566818214	        0.2679232691	        0.2339277691	       -1.2545427309	        0.0254905517	       -0.0069298444	        0.1121291433	
        1.4400000000	        2.6885849833	      -59.1748916606	      -21.9846807435	       24.6685891213	      -67.2696893168	       97.7319180808	     -132.4786368161	      -12.9190923800	       -1.1441833221	      -73.4256878160	       -2.4122901013	        0.0929058638	       -0.0672336960	       79.2032151484	      -29.7651538371	        8.9845109583	       26.7185654697	        4.3865231120	       -1.0633344382	        0.2024412942	      -12.4612569429	      -17.7577188747	        1.9130888237	       -1.5325970342	       -0.0129602693	        0.2828629235	       -0.9456040418	        0.0351725891	        0.0165526161	        0.1042109582	       -2.6742354337	        0.0321743496	        0.2062656530	       -1.3354927033	        0.0208355705	       -0.0132232171	        0.1245743665	
        1.4450000000	       21.1694311796	       21.1442640439	       -6.8150671420	       -4.6189321689	      131.0744417513	       85.0225155050	      -44.3532053898	       -8.2903538299	       -0.3005147307	      -16.5812552015	       27.8119732835	        0.3086008141	        0.0194133358	       71.5061603506	      -25.2588772348	        8.7845144938	       26.2079072793	        4.7028727684	       -1.0768588772	        0.2398824731	        0.7057572658	      -29.4930953919	        3.8202734424	       -2.3988604592	        0.6368707700	        0.8087787936	       -0.2620639577	        0.0392047729	        0.0812523688	        0.0711047856	       -4.2656940480	       -0.3103187954	        0.1099158215	       -0.8438915759	        0.0034595202	       -0.0136252883	        0.0883216254	
        1.4500000000	       40.2747836194	       50.2982275689	        7.2620286439	      -41.9925686885	      321.7694151613	       79.3776686852	      -20.8199496214	      -12.6626391785	        8.1656565766	       -0.9632879628	       26.4062702701	        5.5143774341	        0.1188004639	       65.2978603890	      -21.1746414538	        8.3586024359	       24.7342096222	        4.9780648271	       -1.0865448140	        0.2720295930	       22.0157849017	      -41.1642402844	        5.5665982250	       -3.2058485127	        1.4619424040	        1.4021986881	        0.8108821827	        0.0349484039	        0.1594516326	       -0.0006872460	       -5.7045395557	       -0.6567480953	        0.0084932683	        0.1000668779	       -0.0211792781	       -0.0021741907	        0.0095099208	
        1.4550000000	       56.6969443444	       64.3558187093	       20.0151310232	      -65.3817263625	      455.5367995356	       67.2454424941	      -17.7889013629	      -21.3238567079	       20.4142165175	        2.6657247620	       20.3081710957	       13.7666441877	        0.2168673289	       62.5606085616	      -17.4119499418	        7.7881526732	       22.9052667379	        5.1811750514	       -1.0875278948	        0.2958329787	       45.7026578020	      -49.2548131181	        6.5675724785	       -3.6941395534	        2.2163999690	        1.8815280395	        2.0326013975	        0.0256137361	        0.2300125526	       -0.0922787045	       -6.5730143860	       -0.7530615860	       -0.0173911439	        1.2517604650	       -0.0467712076	        0.0190162318	       -0.0892718081	
        1.4600000000	       66.0188792111	       68.1646024776	       30.6739852815	      -70.9598249672	      504.1371093485	       36.5089273294	      -32.0419401251	      -34.2415316936	       33.4177026210	        2.3747347468	        0.1257714447	       23.2903967085	        0.3015084375	       62.1352895975	      -13.9096093435	        7.1139755302	       21.4569583442	        5.2755671764	       -1.0752192110	        0.3081865272	       65.7237483442	      -52.1615779916	        6.8316660472	       -3.8405843881	        2.5813192998	        2.0872599738	        3.1393819119	        0.0095532931	        0.2706493577	       -0.1836010934	       -6.8364599237	       -0.7081086916	        0.0245036063	        2.3522976699	       -0.0664222735	        0.0490097226	       -0.1840320460	
        1.4650000000	       67.7746520349	       55.0533121876	       38.6702161774	      -44.8073416866	      438.8030875448	        3.3704031240	      -65.9917358064	      -47.2205409057	       45.7817287384	       -3.1870444557	      -25.1438381003	       32.7470391383	        0.3606254557	       64.6597294685	      -10.4459624477	        6.3682607229	       20.8602686949	        5.2836529942	       -1.0424823778	        0.3108117778	       76.8731969041	      -48.6955865599	        6.0853022574	       -3.6030108816	        2.5799229552	        2.0100459845	        3.8586067588	       -0.0086056652	        0.2787118578	       -0.2511802757	       -6.4119650617	       -0.2429716606	        0.2280884515	        3.1243590146	       -0.0753886583	        0.0832437114	       -0.2491229619	
        1.4700000000	       55.7604589652	       29.9338216613	       43.5890051789	        6.2987759995	      259.9424696759	      -18.6356382989	     -107.7830312694	      -55.8954604154	       55.0953451414	       -4.4763112289	      -48.5685931296	       40.5526791500	        0.3846432126	       68.0150178070	       -6.9233766759	        5.5865784522	       21.5269207730	        5.1629292532	       -0.9910693845	        0.3009962219	       76.2597951434	      -38.3714866977	        4.5389816906	       -3.0698408259	        1.9797633937	        1.5640037875	        4.0487306830	       -0.0264936673	        0.2416348035	       -0.2843132389	       -5.4255249270	        0.5182164472	        0.5603146993	        3.4393259900	       -0.0698694895	        0.1186660693	       -0.2716857369	
        1.4750000000	       31.7938922991	       -0.5334995993	       43.6544775074	       68.9899860868	       22.9552161806	      -16.7255560867	     -148.7245690614	      -55.1092181942	       56.6899644251	        0.9517291583	      -65.1851456573	       45.7180391466	        0.3729655699	       70.6555342467	       -3.4480753748	        4.8250612493	       23.0378019653	        4.9469871158	       -0.9248327356	        0.2828694695	       69.0184482451	      -23.8550044917	        2.6107043163	       -2.3792511115	        1.0134812058	        0.9029153643	        3.8691354569	       -0.0427618674	        0.1777478539	       -0.2836101111	       -4.1459591323	        1.4669675986	        0.9707168014	        3.3672014649	       -0.0555268842	        0.1522802970	       -0.2608471519	
        1.4800000000	       -0.0051078688	      -26.6341586573	       41.5780122755	      124.9939588243	     -201.0866411491	       -2.8956976586	     -176.7092366775	      -49.3819263792	       54.1139476143	       15.6284194965	      -73.3853634521	       47.0573099501	        0.3367875510	       70.9817965448	       -0.3158168866	        4.1020544553	       24.9155436939	        4.6704634289	       -0.8483386101	        0.2602789943	       57.2805252331	       -8.8835230557	        0.9971464789	       -1.5829526847	        0.0021458845	        0.2292323256	        3.6162417345	       -0.0571230159	        0.1097183477	       -0.2831385203	       -2.8016412302	        2.3834360053	        1.3391860030	        3.2762914394	       -0.0406199614	        0.1796829334	       -0.2483465487	
        1.4850000000	      -31.6722585193	      -41.4942164226	       35.7113296581	      161.0506777722	     -355.1837652761	       14.8308405322	     -190.5897418145	      -37.7986976133	       44.6140315261	       38.8497961215	      -77.9376033150	       47.3171880889	        0.2788352155	       70.5128987935	        2.3464789810	        3.3776618072	       26.4474876847	        4.3753721464	       -0.7646108091	        0.2376257189	       48.3185144483	        2.8909086705	        0.1016500705	       -0.6844040536	       -0.6388020688	       -0.2369524776	        3.4780049096	       -0.0699538345	        0.0666900564	       -0.2849475178	       -1.5155310740	        3.0467259823	        1.5554602633	        3.2372057390	       -0.0321713098	        0.1956358668	       -0.2429695232	
